<svg id="Layer_1" data-name="Layer 1" xmlns="http://www.w3.org/2000/svg" viewBox="0 0 128 128"><title>LETTER</title><path d="M128,59.315a1.827,1.827,0,0,0-.646-1.358L105.417,40.13V6.962a1.75,1.75,0,0,0-1.75-1.75H24.333a1.75,1.75,0,0,0-1.75,1.75V40.13L.646,57.957A1.827,1.827,0,0,0,0,59.315v61.723a1.78,1.78,0,0,0,1.75,1.75h124.5a1.78,1.78,0,0,0,1.75-1.75ZM3.5,62.1,35.437,77.5,3.5,116.171ZM38.684,79.068,63.24,90.91a1.747,1.747,0,0,0,1.52,0L89.316,79.068l33.218,40.22H5.465ZM92.563,77.5,124.5,62.1v54.069Zm30.445-18.567-17.591,8.483V44.64ZM26.083,8.712h75.834V69.106L64,87.391,26.083,69.106Zm-3.5,35.928V67.419L4.992,58.936Z"/><path d="M35.125,18.8H64a1.75,1.75,0,1,0,0-3.5H35.125a1.75,1.75,0,0,0,0,3.5Z"/><path d="M35.125,28.3h57.75a1.75,1.75,0,0,0,0-3.5H35.125a1.75,1.75,0,0,0,0,3.5Z"/><path d="M35.125,37.795h57.75a1.75,1.75,0,0,0,0-3.5H35.125a1.75,1.75,0,0,0,0,3.5Z"/><path d="M35.125,47.294h57.75a1.75,1.75,0,0,0,0-3.5H35.125a1.75,1.75,0,0,0,0,3.5Z"/><path d="M35.125,56.792h57.75a1.75,1.75,0,0,0,0-3.5H35.125a1.75,1.75,0,0,0,0,3.5Z"/><path d="M35.125,66.292h57.75a1.75,1.75,0,0,0,0-3.5H35.125a1.75,1.75,0,0,0,0,3.5Z"/></svg>